<?xml version="1.0" standalone="no"?>
<!DOCTYPE svg PUBLIC "-//W3C//DTD SVG 20010904//EN"
 "http://www.w3.org/TR/2001/REC-SVG-20010904/DTD/svg10.dtd">
<svg version="1.0" xmlns="http://www.w3.org/2000/svg"
 width="128.000000pt" height="128.000000pt" viewBox="0 0 128.000000 128.000000"
 preserveAspectRatio="xMidYMid meet">
<metadata>
Created by potrace 1.14, written by Peter Selinger 2001-2017
</metadata>
<g transform="translate(0.000000,128.000000) scale(0.100000,-0.100000)"
fill="#000000" stroke="none">
<path d="M236 1264 c-3 -9 -6 -24 -6 -35 0 -23 8 -21 -110 -23 -53 -1 -101 -6
-108 -10 -18 -11 -14 -165 5 -231 41 -139 162 -248 306 -276 41 -7 59 -18 87
-48 19 -21 54 -50 77 -65 38 -25 42 -31 37 -60 -19 -106 -56 -194 -115 -273
-27 -36 -31 -50 -32 -106 -1 -57 -3 -65 -18 -62 -10 2 -28 -4 -40 -14 -18 -15
-20 -21 -10 -39 12 -22 13 -22 330 -22 340 0 351 2 336 49 -6 21 -38 36 -55
26 -12 -7 -12 -8 -14 71 -2 51 -7 67 -34 100 -57 72 -90 152 -117 286 -2 12
11 26 40 42 23 14 57 42 75 63 27 30 46 41 103 55 125 32 214 103 269 216 28
57 32 76 36 172 5 130 5 131 -120 129 -114 -1 -111 -2 -105 20 2 10 0 26 -5
35 -8 14 -48 16 -407 16 -355 0 -400 -2 -405 -16z m0 -174 c8 -74 36 -197 59
-255 14 -32 22 -61 20 -63 -12 -12 -100 34 -141 74 -59 58 -92 130 -98 217
l-4 68 80 -3 81 -3 3 -35z m966 18 c12 -79 -30 -194 -93 -255 -38 -37 -113
-83 -135 -83 -7 0 0 31 17 80 16 44 33 108 39 142 18 107 18 113 19 126 1 8
23 12 75 12 70 0 75 -1 78 -22z"/>
</g>
</svg>
